<?xml version="1.0" encoding="UTF-8" standalone="no"?>
<svg
   version="1.1"
   width="1020.0001"
   height="506.10977"
   viewBox="0 0 269.87502 133.90822"
   id="svg674"
   sodipodi:docname="compuertas_switch_OR.svg"
   inkscape:version="1.1.1 (3bf5ae0d25, 2021-09-20)"
   xmlns:inkscape="http://www.inkscape.org/namespaces/inkscape"
   xmlns:sodipodi="http://sodipodi.sourceforge.net/DTD/sodipodi-0.dtd"
   xmlns="http://www.w3.org/2000/svg"
   xmlns:svg="http://www.w3.org/2000/svg"
   xmlns:rdf="http://www.w3.org/1999/02/22-rdf-syntax-ns#"
   xmlns:cc="http://creativecommons.org/ns#"
   xmlns:dc="http://purl.org/dc/elements/1.1/">
  <defs
     id="defs678" />
  <sodipodi:namedview
     id="namedview676"
     pagecolor="#ffffff"
     bordercolor="#666666"
     borderopacity="1.0"
     inkscape:pageshadow="2"
     inkscape:pageopacity="0.0"
     inkscape:pagecheckerboard="0"
     inkscape:document-units="px"
     showgrid="false"
     units="px"
     width="1020.0001px"
     inkscape:zoom="0.3433166"
     inkscape:cx="208.26258"
     inkscape:cy="543.23036"
     inkscape:window-width="1280"
     inkscape:window-height="736"
     inkscape:window-x="0"
     inkscape:window-y="0"
     inkscape:window-maximized="1"
     inkscape:current-layer="svg674" />
  <title
     id="title2">SVG Image created as compuertas_switch.svg date 2023/02/22 18:50:47 </title>
  <desc
     id="desc4">Image generated by Eeschema-SVG </desc>
  <g
     style="fill:#000000;fill-opacity:1;stroke:#000000;stroke-linecap:round;stroke-linejoin:round;stroke-opacity:1"
     id="g6"
     transform="translate(-149.93346,-65.160399)" />
  <g
     style="fill:#006464;fill-opacity:0;stroke:#006464;stroke-width:0.1524;stroke-linecap:round;stroke-linejoin:round;stroke-opacity:1"
     id="g636"
     transform="translate(-149.93346,-65.160399)" />
  <g
     id="g1014"
     transform="matrix(4.2636546,0,0,4.2636546,-636.61863,-275.17561)">
    <g
       style="fill:#000000;fill-opacity:0;stroke:#000000;stroke-width:0.1524;stroke-linecap:round;stroke-linejoin:round;stroke-opacity:1"
       id="g160">
      <g
         id="g8" />
      <g
         style="fill:#840000;fill-opacity:0;stroke:#840000;stroke-width:0.1524;stroke-linecap:round;stroke-linejoin:round;stroke-opacity:1"
         id="g18">
        <circle
           cx="175.76801"
           cy="81.279999"
           r="0.50800002"
           id="circle10" />
        <path
           style="fill:none;fill-opacity:0;stroke:#840000;stroke-width:0.1524;stroke-linecap:round;stroke-linejoin:round;stroke-opacity:1"
           d="m 176.276,81.026 3.048,-1.524"
           id="path12" />
        <circle
           cx="179.832"
           cy="81.279999"
           r="0.50800002"
           id="circle14" />
        <path
           d="m 175.26,81.28 h -2.54"
           id="path16" />
      </g>
      <g
         style="fill:#a90000;fill-opacity:0;stroke:#a90000;stroke-width:0.1524;stroke-linecap:round;stroke-linejoin:round;stroke-opacity:1"
         id="g36">
        <text
           x="173.99001"
           y="82.804001"
           textLength="1.3365"
           font-size="1.6933px"
           lengthAdjust="spacingAndGlyphs"
           text-anchor="middle"
           opacity="0"
           id="text20">1</text>
        <g
           class="stroked-text"
           id="g34">
          <desc
             id="desc22">1</desc>
          <path
             d="m 174.3529,82.7435 h -0.7257"
             id="path24" />
          <path
             d="m 173.99,82.7435 v -1.27"
             id="path26" />
          <path
             d="m 173.99,81.4735 -0.1209,0.1814"
             id="path28" />
          <path
             d="m 173.8691,81.6549 -0.121,0.121"
             id="path30" />
          <path
             d="m 173.7481,81.7759 -0.1209,0.0604"
             id="path32" />
        </g>
      </g>
      <g
         style="fill:#840000;fill-opacity:0;stroke:#840000;stroke-width:0.1524;stroke-linecap:round;stroke-linejoin:round;stroke-opacity:1"
         id="g40">
        <path
           d="m 180.34,81.28 h 2.54"
           id="path38" />
      </g>
      <g
         style="fill:#a90000;fill-opacity:0;stroke:#a90000;stroke-width:0.1524;stroke-linecap:round;stroke-linejoin:round;stroke-opacity:1"
         id="g68">
        <text
           x="181.61"
           y="82.804001"
           textLength="1.3365"
           font-size="1.6933px"
           lengthAdjust="spacingAndGlyphs"
           text-anchor="middle"
           opacity="0"
           id="text42">2</text>
        <g
           class="stroked-text"
           id="g66">
          <desc
             id="desc44">2</desc>
          <path
             d="m 181.2472,81.5944 0.0604,-0.0604"
             id="path46" />
          <path
             d="m 181.3076,81.534 0.121,-0.0605"
             id="path48" />
          <path
             d="m 181.4286,81.4735 h 0.3024"
             id="path50" />
          <path
             d="m 181.731,81.4735 0.1209,0.0605"
             id="path52" />
          <path
             d="m 181.8519,81.534 0.0605,0.0604"
             id="path54" />
          <path
             d="m 181.9124,81.5944 0.0605,0.121"
             id="path56" />
          <path
             d="m 181.9729,81.7154 v 0.1209"
             id="path58" />
          <path
             d="m 181.9729,81.8363 -0.0605,0.1815"
             id="path60" />
          <path
             d="m 181.9124,82.0178 -0.7257,0.7257"
             id="path62" />
          <path
             d="m 181.1867,82.7435 h 0.7862"
             id="path64" />
        </g>
      </g>
      <g
         style="fill:#006464;fill-opacity:0;stroke:#006464;stroke-width:0.1524;stroke-linecap:round;stroke-linejoin:round;stroke-opacity:1"
         id="g158">
        <text
           x="177.8"
           y="79.375"
           textLength="4.0579"
           font-size="1.6933px"
           lengthAdjust="spacingAndGlyphs"
           text-anchor="middle"
           opacity="0"
           id="text70">SWB</text>
        <g
           class="stroked-text"
           id="g156">
          <desc
             id="desc72">SWB</desc>
          <path
             d="m 176.0765,79.1461 0.1814,0.0605"
             id="path74" />
          <path
             d="m 176.2579,79.2066 h 0.3024"
             id="path76" />
          <path
             d="m 176.5603,79.2066 0.1209,-0.0605"
             id="path78" />
          <path
             d="m 176.6812,79.1461 0.0605,-0.0605"
             id="path80" />
          <path
             d="m 176.7417,79.0856 0.0605,-0.1209"
             id="path82" />
          <path
             d="m 176.8022,78.9647 v -0.121"
             id="path84" />
          <path
             d="m 176.8022,78.8437 -0.0605,-0.1209"
             id="path86" />
          <path
             d="m 176.7417,78.7228 -0.0605,-0.0605"
             id="path88" />
          <path
             d="m 176.6812,78.6623 -0.1209,-0.0605"
             id="path90" />
          <path
             d="m 176.5603,78.6018 -0.2419,-0.0605"
             id="path92" />
          <path
             d="m 176.3184,78.5413 -0.121,-0.0604"
             id="path94" />
          <path
             d="m 176.1974,78.4809 -0.0605,-0.0605"
             id="path96" />
          <path
             d="m 176.1369,78.4204 -0.0604,-0.121"
             id="path98" />
          <path
             d="M 176.0765,78.2994 V 78.1785"
             id="path100" />
          <path
             d="m 176.0765,78.1785 0.0604,-0.121"
             id="path102" />
          <path
             d="m 176.1369,78.0575 0.0605,-0.0604"
             id="path104" />
          <path
             d="m 176.1974,77.9971 0.121,-0.0605"
             id="path106" />
          <path
             d="m 176.3184,77.9366 h 0.3023"
             id="path108" />
          <path
             d="m 176.6207,77.9366 0.1815,0.0605"
             id="path110" />
          <path
             d="m 177.2255,77.9366 0.3024,1.27"
             id="path112" />
          <path
             d="m 177.5279,79.2066 0.2419,-0.9072"
             id="path114" />
          <path
             d="m 177.7698,78.2994 0.2419,0.9072"
             id="path116" />
          <path
             d="m 178.0117,79.2066 0.3024,-1.27"
             id="path118" />
          <path
             d="m 179.2212,78.5413 0.1814,0.0605"
             id="path120" />
          <path
             d="m 179.4026,78.6018 0.0605,0.0605"
             id="path122" />
          <path
             d="m 179.4631,78.6623 0.0604,0.1209"
             id="path124" />
          <path
             d="m 179.5235,78.7832 v 0.1815"
             id="path126" />
          <path
             d="m 179.5235,78.9647 -0.0604,0.1209"
             id="path128" />
          <path
             d="m 179.4631,79.0856 -0.0605,0.0605"
             id="path130" />
          <path
             d="m 179.4026,79.1461 -0.121,0.0605"
             id="path132" />
          <path
             d="m 179.2816,79.2066 h -0.4838"
             id="path134" />
          <path
             d="m 178.7978,79.2066 v -1.27"
             id="path136" />
          <path
             d="m 178.7978,77.9366 h 0.4234"
             id="path138" />
          <path
             d="m 179.2212,77.9366 0.1209,0.0605"
             id="path140" />
          <path
             d="m 179.3421,77.9971 0.0605,0.0604"
             id="path142" />
          <path
             d="m 179.4026,78.0575 0.0605,0.121"
             id="path144" />
          <path
             d="m 179.4631,78.1785 v 0.1209"
             id="path146" />
          <path
             d="m 179.4631,78.2994 -0.0605,0.121"
             id="path148" />
          <path
             d="m 179.4026,78.4204 -0.0605,0.0605"
             id="path150" />
          <path
             d="m 179.3421,78.4809 -0.1209,0.0604"
             id="path152" />
          <path
             d="m 179.2212,78.5413 h -0.4234"
             id="path154" />
        </g>
      </g>
    </g>
    <g
       style="fill:#006464;fill-opacity:0;stroke:#006464;stroke-width:0.1524;stroke-linecap:round;stroke-linejoin:round;stroke-opacity:1"
       id="g284">
      <g
         id="g162" />
      <g
         style="fill:#840000;fill-opacity:0;stroke:#840000;stroke-width:0.1524;stroke-linecap:round;stroke-linejoin:round;stroke-opacity:1"
         id="g172">
        <circle
           cx="175.76801"
           cy="72.389999"
           r="0.50800002"
           id="circle164" />
        <path
           style="fill:none;fill-opacity:0;stroke:#840000;stroke-width:0.1524;stroke-linecap:round;stroke-linejoin:round;stroke-opacity:1"
           d="m 176.276,72.136 3.048,-1.524"
           id="path166" />
        <circle
           cx="179.832"
           cy="72.389999"
           r="0.50800002"
           id="circle168" />
        <path
           d="m 175.26,72.39 h -2.54"
           id="path170" />
      </g>
      <g
         style="fill:#a90000;fill-opacity:0;stroke:#a90000;stroke-width:0.1524;stroke-linecap:round;stroke-linejoin:round;stroke-opacity:1"
         id="g190">
        <text
           x="173.99001"
           y="73.914001"
           textLength="1.3365"
           font-size="1.6933px"
           lengthAdjust="spacingAndGlyphs"
           text-anchor="middle"
           opacity="0"
           id="text174">1</text>
        <g
           class="stroked-text"
           id="g188">
          <desc
             id="desc176">1</desc>
          <path
             d="m 174.3529,73.8535 h -0.7257"
             id="path178" />
          <path
             d="m 173.99,73.8535 v -1.27"
             id="path180" />
          <path
             d="m 173.99,72.5835 -0.1209,0.1814"
             id="path182" />
          <path
             d="m 173.8691,72.7649 -0.121,0.121"
             id="path184" />
          <path
             d="m 173.7481,72.8859 -0.1209,0.0604"
             id="path186" />
        </g>
      </g>
      <g
         style="fill:#840000;fill-opacity:0;stroke:#840000;stroke-width:0.1524;stroke-linecap:round;stroke-linejoin:round;stroke-opacity:1"
         id="g194">
        <path
           d="m 180.34,72.39 h 2.54"
           id="path192" />
      </g>
      <g
         style="fill:#a90000;fill-opacity:0;stroke:#a90000;stroke-width:0.1524;stroke-linecap:round;stroke-linejoin:round;stroke-opacity:1"
         id="g222">
        <text
           x="181.61"
           y="73.914001"
           textLength="1.3365"
           font-size="1.6933px"
           lengthAdjust="spacingAndGlyphs"
           text-anchor="middle"
           opacity="0"
           id="text196">2</text>
        <g
           class="stroked-text"
           id="g220">
          <desc
             id="desc198">2</desc>
          <path
             d="m 181.2472,72.7044 0.0604,-0.0604"
             id="path200" />
          <path
             d="m 181.3076,72.644 0.121,-0.0605"
             id="path202" />
          <path
             d="m 181.4286,72.5835 h 0.3024"
             id="path204" />
          <path
             d="m 181.731,72.5835 0.1209,0.0605"
             id="path206" />
          <path
             d="m 181.8519,72.644 0.0605,0.0604"
             id="path208" />
          <path
             d="m 181.9124,72.7044 0.0605,0.121"
             id="path210" />
          <path
             d="m 181.9729,72.8254 v 0.1209"
             id="path212" />
          <path
             d="m 181.9729,72.9463 -0.0605,0.1815"
             id="path214" />
          <path
             d="m 181.9124,73.1278 -0.7257,0.7257"
             id="path216" />
          <path
             d="m 181.1867,73.8535 h 0.7862"
             id="path218" />
        </g>
      </g>
      <g
         style="fill:#006464;fill-opacity:0;stroke:#006464;stroke-width:0.1524;stroke-linecap:round;stroke-linejoin:round;stroke-opacity:1"
         id="g282">
        <text
           x="177.8"
           y="70.485001"
           textLength="3.8764999"
           font-size="1.6933px"
           lengthAdjust="spacingAndGlyphs"
           text-anchor="middle"
           opacity="0"
           id="text224">SWA</text>
        <g
           class="stroked-text"
           id="g280">
          <desc
             id="desc226">SWA</desc>
          <path
             d="m 176.1672,70.2561 0.1814,0.0605"
             id="path228" />
          <path
             d="m 176.3486,70.3166 h 0.3024"
             id="path230" />
          <path
             d="m 176.651,70.3166 0.1209,-0.0605"
             id="path232" />
          <path
             d="m 176.7719,70.2561 0.0605,-0.0605"
             id="path234" />
          <path
             d="m 176.8324,70.1956 0.0605,-0.1209"
             id="path236" />
          <path
             d="m 176.8929,70.0747 v -0.121"
             id="path238" />
          <path
             d="m 176.8929,69.9537 -0.0605,-0.1209"
             id="path240" />
          <path
             d="m 176.8324,69.8328 -0.0605,-0.0605"
             id="path242" />
          <path
             d="M 176.7719,69.7723 176.651,69.7118"
             id="path244" />
          <path
             d="m 176.651,69.7118 -0.2419,-0.0605"
             id="path246" />
          <path
             d="m 176.4091,69.6513 -0.121,-0.0604"
             id="path248" />
          <path
             d="m 176.2881,69.5909 -0.0605,-0.0605"
             id="path250" />
          <path
             d="m 176.2276,69.5304 -0.0604,-0.121"
             id="path252" />
          <path
             d="M 176.1672,69.4094 V 69.2885"
             id="path254" />
          <path
             d="m 176.1672,69.2885 0.0604,-0.121"
             id="path256" />
          <path
             d="m 176.2276,69.1675 0.0605,-0.0604"
             id="path258" />
          <path
             d="m 176.2881,69.1071 0.121,-0.0605"
             id="path260" />
          <path
             d="m 176.4091,69.0466 h 0.3023"
             id="path262" />
          <path
             d="m 176.7114,69.0466 0.1815,0.0605"
             id="path264" />
          <path
             d="m 177.3162,69.0466 0.3024,1.27"
             id="path266" />
          <path
             d="m 177.6186,70.3166 0.2419,-0.9072"
             id="path268" />
          <path
             d="m 177.8605,69.4094 0.2419,0.9072"
             id="path270" />
          <path
             d="m 178.1024,70.3166 0.3024,-1.27"
             id="path272" />
          <path
             d="m 178.8281,69.9537 h 0.6047"
             id="path274" />
          <path
             d="m 178.7071,70.3166 0.4233,-1.27"
             id="path276" />
          <path
             d="m 179.1304,69.0466 0.4234,1.27"
             id="path278" />
        </g>
      </g>
    </g>
    <g
       style="fill:#006464;fill-opacity:0;stroke:#006464;stroke-width:0.1524;stroke-linecap:round;stroke-linejoin:round;stroke-opacity:1"
       id="g438">
      <g
         id="g286" />
      <g
         style="fill:#840000;fill-opacity:0;stroke:#840000;stroke-width:0.1524;stroke-linecap:round;stroke-linejoin:round;stroke-opacity:1"
         id="g288" />
      <g
         style="fill:#840000;fill-opacity:0;stroke:#840000;stroke-width:0.254;stroke-linecap:round;stroke-linejoin:round;stroke-opacity:1"
         id="g292">
        <rect
           x="204.724"
           y="81.279999"
           width="2.0320001"
           height="5.0799999"
           rx="0.000000"
           id="rect290" />
      </g>
      <g
         style="fill:#840000;fill-opacity:0;stroke:#840000;stroke-width:0.1524;stroke-linecap:round;stroke-linejoin:round;stroke-opacity:1"
         id="g298">
        <path
           d="M 205.74,81.28 V 80.01"
           id="path294" />
        <path
           d="m 205.74,86.36 v 1.27"
           id="path296" />
      </g>
      <g
         style="fill:#006464;fill-opacity:0;stroke:#006464;stroke-width:0.1524;stroke-linecap:round;stroke-linejoin:round;stroke-opacity:1"
         id="g436">
        <text
           x="209.5912"
           y="83.82"
           textLength="2.6064999"
           font-size="1.6933px"
           lengthAdjust="spacingAndGlyphs"
           text-anchor="middle"
           opacity="0"
           id="text300">R1</text>
        <g
           class="stroked-text"
           id="g336">
          <desc
             id="desc302">R1</desc>
          <path
             d="m 209.3795,83.6516 -0.4233,-0.6048"
             id="path304" />
          <path
             d="m 208.6538,83.6516 v -1.27"
             id="path306" />
          <path
             d="m 208.6538,82.3816 h 0.4838"
             id="path308" />
          <path
             d="m 209.1376,82.3816 0.121,0.0605"
             id="path310" />
          <path
             d="m 209.2586,82.4421 0.0605,0.0604"
             id="path312" />
          <path
             d="m 209.3191,82.5025 0.0604,0.121"
             id="path314" />
          <path
             d="m 209.3795,82.6235 v 0.1814"
             id="path316" />
          <path
             d="m 209.3795,82.8049 -0.0604,0.121"
             id="path318" />
          <path
             d="m 209.3191,82.9259 -0.0605,0.0604"
             id="path320" />
          <path
             d="m 209.2586,82.9863 -0.121,0.0605"
             id="path322" />
          <path
             d="m 209.1376,83.0468 h -0.4838"
             id="path324" />
          <path
             d="m 210.5891,83.6516 h -0.7257"
             id="path326" />
          <path
             d="m 210.2262,83.6516 v -1.27"
             id="path328" />
          <path
             d="m 210.2262,82.3816 -0.1209,0.1814"
             id="path330" />
          <path
             d="m 210.1053,82.563 -0.121,0.121"
             id="path332" />
          <path
             d="m 209.9843,82.684 -0.1209,0.0604"
             id="path334" />
        </g>
        <text
           x="210.1657"
           y="86.360001"
           textLength="3.7555001"
           font-size="1.6933px"
           lengthAdjust="spacingAndGlyphs"
           text-anchor="middle"
           opacity="0"
           id="text338">330</text>
        <g
           class="stroked-text"
           id="g434">
          <desc
             id="desc340">330</desc>
          <path
             d="m 208.5329,84.9216 h 0.7862"
             id="path342" />
          <path
             d="m 209.3191,84.9216 -0.4234,0.4838"
             id="path344" />
          <path
             d="m 208.8957,85.4054 h 0.1815"
             id="path346" />
          <path
             d="m 209.0772,85.4054 0.1209,0.0605"
             id="path348" />
          <path
             d="m 209.1981,85.4659 0.0605,0.0604"
             id="path350" />
          <path
             d="m 209.2586,85.5263 0.0605,0.121"
             id="path352" />
          <path
             d="m 209.3191,85.6473 v 0.3024"
             id="path354" />
          <path
             d="m 209.3191,85.9497 -0.0605,0.1209"
             id="path356" />
          <path
             d="m 209.2586,86.0706 -0.0605,0.0605"
             id="path358" />
          <path
             d="m 209.1981,86.1311 -0.1209,0.0605"
             id="path360" />
          <path
             d="m 209.0772,86.1916 h -0.3629"
             id="path362" />
          <path
             d="m 208.7143,86.1916 -0.1209,-0.0605"
             id="path364" />
          <path
             d="m 208.5934,86.1311 -0.0605,-0.0605"
             id="path366" />
          <path
             d="m 209.7424,84.9216 h 0.7862"
             id="path368" />
          <path
             d="m 210.5286,84.9216 -0.4234,0.4838"
             id="path370" />
          <path
             d="m 210.1052,85.4054 h 0.1815"
             id="path372" />
          <path
             d="m 210.2867,85.4054 0.1209,0.0605"
             id="path374" />
          <path
             d="m 210.4076,85.4659 0.0605,0.0604"
             id="path376" />
          <path
             d="m 210.4681,85.5263 0.0605,0.121"
             id="path378" />
          <path
             d="m 210.5286,85.6473 v 0.3024"
             id="path380" />
          <path
             d="m 210.5286,85.9497 -0.0605,0.1209"
             id="path382" />
          <path
             d="m 210.4681,86.0706 -0.0605,0.0605"
             id="path384" />
          <path
             d="m 210.4076,86.1311 -0.1209,0.0605"
             id="path386" />
          <path
             d="m 210.2867,86.1916 h -0.3629"
             id="path388" />
          <path
             d="m 209.9238,86.1916 -0.1209,-0.0605"
             id="path390" />
          <path
             d="m 209.8029,86.1311 -0.0605,-0.0605"
             id="path392" />
          <path
             d="m 211.3147,84.9216 h 0.121"
             id="path394" />
          <path
             d="m 211.4357,84.9216 0.1209,0.0605"
             id="path396" />
          <path
             d="m 211.5566,84.9821 0.0605,0.0604"
             id="path398" />
          <path
             d="m 211.6171,85.0425 0.0605,0.121"
             id="path400" />
          <path
             d="m 211.6776,85.1635 0.0605,0.2419"
             id="path402" />
          <path
             d="m 211.7381,85.4054 v 0.3024"
             id="path404" />
          <path
             d="m 211.7381,85.7078 -0.0605,0.2419"
             id="path406" />
          <path
             d="m 211.6776,85.9497 -0.0605,0.1209"
             id="path408" />
          <path
             d="m 211.6171,86.0706 -0.0605,0.0605"
             id="path410" />
          <path
             d="m 211.5566,86.1311 -0.1209,0.0605"
             id="path412" />
          <path
             d="m 211.4357,86.1916 h -0.121"
             id="path414" />
          <path
             d="m 211.3147,86.1916 -0.1209,-0.0605"
             id="path416" />
          <path
             d="m 211.1938,86.1311 -0.0605,-0.0605"
             id="path418" />
          <path
             d="m 211.1333,86.0706 -0.0605,-0.1209"
             id="path420" />
          <path
             d="m 211.0728,85.9497 -0.0604,-0.2419"
             id="path422" />
          <path
             d="M 211.0124,85.7078 V 85.4054"
             id="path424" />
          <path
             d="m 211.0124,85.4054 0.0604,-0.2419"
             id="path426" />
          <path
             d="m 211.0728,85.1635 0.0605,-0.121"
             id="path428" />
          <path
             d="m 211.1333,85.0425 0.0605,-0.0604"
             id="path430" />
          <path
             d="m 211.1938,84.9821 0.1209,-0.0605"
             id="path432" />
        </g>
      </g>
    </g>
    <g
       style="fill:#006464;fill-opacity:0;stroke:#006464;stroke-width:0.1524;stroke-linecap:round;stroke-linejoin:round;stroke-opacity:1"
       id="g550">
      <g
         id="g440" />
      <g
         style="fill:#840000;fill-opacity:0;stroke:#840000;stroke-width:0.1524;stroke-linecap:round;stroke-linejoin:round;stroke-opacity:1"
         id="g442" />
      <g
         style="fill:#840000;fill-opacity:0;stroke:#840000;stroke-width:0.254;stroke-linecap:round;stroke-linejoin:round;stroke-opacity:1"
         id="g446">
        <path
           style="fill:none;fill-opacity:0;stroke:#840000;stroke-width:0.254;stroke-linecap:round;stroke-linejoin:round;stroke-opacity:1"
           d="m 200.66,71.12 v 2.54"
           id="path444" />
      </g>
      <g
         style="fill:#840000;fill-opacity:0;stroke:#840000;stroke-width:0.1524;stroke-linecap:round;stroke-linejoin:round;stroke-opacity:1"
         id="g450">
        <path
           style="fill:none;fill-opacity:0;stroke:#840000;stroke-width:0.1524;stroke-linecap:round;stroke-linejoin:round;stroke-opacity:1"
           d="m 200.66,72.39 h -2.54"
           id="path448" />
      </g>
      <g
         style="fill:#840000;fill-opacity:0;stroke:#840000;stroke-width:0.254;stroke-linecap:round;stroke-linejoin:round;stroke-opacity:1"
         id="g454">
        <path
           style="fill:none;fill-opacity:0;stroke:#840000;stroke-width:0.254;stroke-linecap:round;stroke-linejoin:round;stroke-opacity:1"
           d="m 198.12,71.12 v 2.54 l 2.54,-1.27 z"
           id="path452" />
      </g>
      <g
         style="fill:#840000;fill-opacity:0;stroke:#840000;stroke-width:0.1524;stroke-linecap:round;stroke-linejoin:round;stroke-opacity:1"
         id="g464">
        <path
           style="fill:none;fill-opacity:0;stroke:#840000;stroke-width:0.1524;stroke-linecap:round;stroke-linejoin:round;stroke-opacity:1"
           d="m 202.438,71.628 1.524,-1.524 h -0.762 0.762 v 0.762"
           id="path456" />
        <path
           style="fill:none;fill-opacity:0;stroke:#840000;stroke-width:0.1524;stroke-linecap:round;stroke-linejoin:round;stroke-opacity:1"
           d="m 201.168,71.628 1.524,-1.524 h -0.762 0.762 v 0.762"
           id="path458" />
        <path
           d="m 200.66,72.39 h 2.54"
           id="path460" />
        <path
           d="m 198.12,72.39 h -2.54"
           id="path462" />
      </g>
      <g
         style="fill:#006464;fill-opacity:0;stroke:#006464;stroke-width:0.1524;stroke-linecap:round;stroke-linejoin:round;stroke-opacity:1"
         id="g548">
        <text
           x="200.9774"
           y="66.675003"
           textLength="2.6064999"
           font-size="1.6933px"
           lengthAdjust="spacingAndGlyphs"
           text-anchor="middle"
           opacity="0"
           id="text466">D1</text>
        <g
           class="stroked-text"
           id="g504">
          <desc
             id="desc468">D1</desc>
          <path
             d="m 200.04,66.5066 v -1.27"
             id="path470" />
          <path
             d="m 200.04,65.2366 h 0.3024"
             id="path472" />
          <path
             d="m 200.3424,65.2366 0.1814,0.0605"
             id="path474" />
          <path
             d="m 200.5238,65.2971 0.121,0.1209"
             id="path476" />
          <path
             d="m 200.6448,65.418 0.0605,0.121"
             id="path478" />
          <path
             d="m 200.7053,65.539 0.0604,0.2419"
             id="path480" />
          <path
             d="m 200.7657,65.7809 v 0.1814"
             id="path482" />
          <path
             d="m 200.7657,65.9623 -0.0604,0.2419"
             id="path484" />
          <path
             d="m 200.7053,66.2042 -0.0605,0.1209"
             id="path486" />
          <path
             d="m 200.6448,66.3251 -0.121,0.121"
             id="path488" />
          <path
             d="m 200.5238,66.4461 -0.1814,0.0605"
             id="path490" />
          <path
             d="M 200.3424,66.5066 H 200.04"
             id="path492" />
          <path
             d="m 201.9753,66.5066 h -0.7257"
             id="path494" />
          <path
             d="m 201.6124,66.5066 v -1.27"
             id="path496" />
          <path
             d="m 201.6124,65.2366 -0.1209,0.1814"
             id="path498" />
          <path
             d="m 201.4915,65.418 -0.121,0.121"
             id="path500" />
          <path
             d="m 201.3705,65.539 -0.1209,0.0604"
             id="path502" />
        </g>
        <text
           x="200.9774"
           y="69.214996"
           textLength="3.5741"
           font-size="1.6933px"
           lengthAdjust="spacingAndGlyphs"
           text-anchor="middle"
           opacity="0"
           id="text506">LED</text>
        <g
           class="stroked-text"
           id="g546">
          <desc
             id="desc508">LED</desc>
          <path
             d="m 200.161,69.0466 h -0.6048"
             id="path510" />
          <path
             d="m 199.5562,69.0466 v -1.27"
             id="path512" />
          <path
             d="m 200.5843,68.3813 h 0.4234"
             id="path514" />
          <path
             d="m 201.1891,69.0466 h -0.6048"
             id="path516" />
          <path
             d="m 200.5843,69.0466 v -1.27"
             id="path518" />
          <path
             d="m 200.5843,67.7766 h 0.6048"
             id="path520" />
          <path
             d="m 201.7333,69.0466 v -1.27"
             id="path522" />
          <path
             d="m 201.7333,67.7766 h 0.3024"
             id="path524" />
          <path
             d="m 202.0357,67.7766 0.1814,0.0605"
             id="path526" />
          <path
             d="m 202.2171,67.8371 0.121,0.1209"
             id="path528" />
          <path
             d="m 202.3381,67.958 0.0605,0.121"
             id="path530" />
          <path
             d="m 202.3986,68.079 0.0604,0.2419"
             id="path532" />
          <path
             d="m 202.459,68.3209 v 0.1814"
             id="path534" />
          <path
             d="m 202.459,68.5023 -0.0604,0.2419"
             id="path536" />
          <path
             d="m 202.3986,68.7442 -0.0605,0.1209"
             id="path538" />
          <path
             d="m 202.3381,68.8651 -0.121,0.121"
             id="path540" />
          <path
             d="m 202.2171,68.9861 -0.1814,0.0605"
             id="path542" />
          <path
             d="m 202.0357,69.0466 h -0.3024"
             id="path544" />
        </g>
      </g>
    </g>
    <g
       style="fill:#006464;fill-opacity:0;stroke:#006464;stroke-width:0.1524;stroke-linecap:round;stroke-linejoin:round;stroke-opacity:1"
       id="g634">
      <g
         id="g552" />
      <g
         style="fill:#840000;fill-opacity:0;stroke:#840000;stroke-width:0.1524;stroke-linecap:round;stroke-linejoin:round;stroke-opacity:1"
         id="g554" />
      <g
         style="fill:#840000;fill-opacity:1;stroke:#840000;stroke-width:0.1524;stroke-linecap:round;stroke-linejoin:round;stroke-opacity:1"
         id="g564">
        <rect
           x="154.17799"
           y="85.217003"
           width="4.0640001"
           height="0.25400001"
           rx="0.000000"
           id="rect556" />
        <rect
           x="154.17799"
           y="82.042"
           width="4.0640001"
           height="0.25400001"
           rx="0.000000"
           id="rect558" />
        <rect
           x="154.88921"
           y="85.801201"
           width="2.5908"
           height="0.50800002"
           rx="0.000000"
           id="rect560" />
        <rect
           x="154.88921"
           y="82.626198"
           width="2.5908"
           height="0.50800002"
           rx="0.000000"
           id="rect562" />
      </g>
      <g
         style="fill:#840000;fill-opacity:0;stroke:#840000;stroke-width:0.1524;stroke-linecap:round;stroke-linejoin:round;stroke-opacity:1"
         id="g578">
        <path
           style="fill:none;fill-opacity:0;stroke:#840000;stroke-width:0.1524;stroke-linecap:round;stroke-linejoin:round;stroke-opacity:1"
           d="M 156.21,85.344 V 85.09"
           id="path566" />
        <path
           style="fill:none;fill-opacity:0;stroke:#840000;stroke-width:0.1524;stroke-linecap:round;stroke-linejoin:round;stroke-opacity:1"
           d="M 156.21,84.836 V 84.582"
           id="path568" />
        <path
           style="fill:none;fill-opacity:0;stroke:#840000;stroke-width:0.1524;stroke-linecap:round;stroke-linejoin:round;stroke-opacity:1"
           d="M 156.21,84.328 V 84.074"
           id="path570" />
        <path
           style="fill:none;fill-opacity:0;stroke:#840000;stroke-width:0.1524;stroke-linecap:round;stroke-linejoin:round;stroke-opacity:1"
           d="M 156.21,83.82 V 83.566"
           id="path572" />
        <path
           style="fill:none;fill-opacity:0;stroke:#840000;stroke-width:0.1524;stroke-linecap:round;stroke-linejoin:round;stroke-opacity:1"
           d="M 156.21,83.312 V 83.058"
           id="path574" />
        <path
           style="fill:none;fill-opacity:0;stroke:#840000;stroke-width:0.1524;stroke-linecap:round;stroke-linejoin:round;stroke-opacity:1"
           d="M 156.21,82.042 V 81.28"
           id="path576" />
      </g>
      <g
         style="fill:#840000;fill-opacity:0;stroke:#840000;stroke-width:0.254;stroke-linecap:round;stroke-linejoin:round;stroke-opacity:1"
         id="g584">
        <path
           style="fill:none;fill-opacity:0;stroke:#840000;stroke-width:0.254;stroke-linecap:round;stroke-linejoin:round;stroke-opacity:1"
           d="m 156.464,81.153 h 1.016"
           id="path580" />
        <path
           style="fill:none;fill-opacity:0;stroke:#840000;stroke-width:0.254;stroke-linecap:round;stroke-linejoin:round;stroke-opacity:1"
           d="m 156.972,80.645 v 1.016"
           id="path582" />
      </g>
      <g
         style="fill:#840000;fill-opacity:0;stroke:#840000;stroke-width:0.1524;stroke-linecap:round;stroke-linejoin:round;stroke-opacity:1"
         id="g590">
        <path
           d="M 156.21,81.28 V 78.74"
           id="path586" />
        <path
           d="M 156.21,86.36 V 88.9"
           id="path588" />
      </g>
      <g
         style="fill:#006464;fill-opacity:0;stroke:#006464;stroke-width:0.1524;stroke-linecap:round;stroke-linejoin:round;stroke-opacity:1"
         id="g632">
        <text
           x="151.08051"
           y="84.455002"
           textLength="2.4251001"
           font-size="1.6933px"
           lengthAdjust="spacingAndGlyphs"
           text-anchor="middle"
           opacity="0"
           id="text592">5V</text>
        <g
           class="stroked-text"
           id="g630">
          <desc
             id="desc594">5V</desc>
          <path
             d="m 150.8386,83.0166 h -0.6048"
             id="path596" />
          <path
             d="m 150.2338,83.0166 -0.0604,0.6047"
             id="path598" />
          <path
             d="m 150.1734,83.6213 0.0604,-0.0604"
             id="path600" />
          <path
             d="m 150.2338,83.5609 0.121,-0.0605"
             id="path602" />
          <path
             d="m 150.3548,83.5004 h 0.3024"
             id="path604" />
          <path
             d="m 150.6572,83.5004 0.1209,0.0605"
             id="path606" />
          <path
             d="m 150.7781,83.5609 0.0605,0.0604"
             id="path608" />
          <path
             d="m 150.8386,83.6213 0.0605,0.121"
             id="path610" />
          <path
             d="m 150.8991,83.7423 v 0.3024"
             id="path612" />
          <path
             d="m 150.8991,84.0447 -0.0605,0.1209"
             id="path614" />
          <path
             d="m 150.8386,84.1656 -0.0605,0.0605"
             id="path616" />
          <path
             d="m 150.7781,84.2261 -0.1209,0.0605"
             id="path618" />
          <path
             d="m 150.6572,84.2866 h -0.3024"
             id="path620" />
          <path
             d="m 150.3548,84.2866 -0.121,-0.0605"
             id="path622" />
          <path
             d="m 150.2338,84.2261 -0.0604,-0.0605"
             id="path624" />
          <path
             d="m 151.2619,83.0166 0.4233,1.27"
             id="path626" />
          <path
             d="m 151.6852,84.2866 0.4234,-1.27"
             id="path628" />
        </g>
      </g>
    </g>
    <g
       style="fill:#009600;fill-opacity:0;stroke:#009600;stroke-width:0.1524;stroke-linecap:round;stroke-linejoin:round;stroke-opacity:1"
       id="g666">
      <path
         d="M 167.64,81.28 V 72.39"
         id="path638" />
      <path
         d="m 182.88,81.28 h 7.62"
         id="path640" />
      <path
         d="M 205.74,95.25 H 156.21"
         id="path642" />
      <path
         d="m 190.5,72.39 h 5.08"
         id="path644" />
      <path
         d="m 182.88,72.39 h 7.62"
         id="path646" />
      <path
         d="M 190.5,81.28 V 72.39"
         id="path648" />
      <path
         d="m 205.74,87.63 v 7.62"
         id="path650" />
      <path
         d="m 172.72,81.28 h -5.08"
         id="path652" />
      <path
         d="m 156.21,72.39 h 11.43"
         id="path654" />
      <path
         d="m 156.21,88.9 v 6.35"
         id="path656" />
      <path
         d="M 156.21,78.74 V 72.39"
         id="path658" />
      <path
         d="m 167.64,72.39 h 5.08"
         id="path660" />
      <path
         d="m 203.2,72.39 h 2.54"
         id="path662" />
      <path
         d="M 205.74,80.01 V 72.39"
         id="path664" />
    </g>
    <g
       style="fill:#009600;fill-opacity:1;stroke:#009600;stroke-width:0.1524;stroke-linecap:round;stroke-linejoin:round;stroke-opacity:1"
       id="g672">
      <circle
         cx="190.5"
         cy="72.389999"
         r="0.45719999"
         id="circle668" />
      <circle
         cx="167.64"
         cy="72.389999"
         r="0.45719999"
         id="circle670" />
    </g>
  </g>
  <metadata
     id="metadata680">
    <rdf:RDF>
      <cc:Work
         rdf:about="">
        <dc:title>SVG Image created as compuertas_switch.svg date 2023/02/22 18:50:47 </dc:title>
      </cc:Work>
    </rdf:RDF>
  </metadata>
</svg>
